<?xml version="1.0" encoding="UTF-8" standalone="no"?>
<svg
   xmlns:dc="http://purl.org/dc/elements/1.1/"
   xmlns:cc="http://creativecommons.org/ns#"
   xmlns:rdf="http://www.w3.org/1999/02/22-rdf-syntax-ns#"
   xmlns:svg="http://www.w3.org/2000/svg"
   xmlns="http://www.w3.org/2000/svg"
   id="svg8"
   version="1.1"
   viewBox="0 0 145.27805 48.101688"
   height="48.101688mm"
   width="145.27805mm">
  <defs
     id="defs2" />
  <metadata
     id="metadata5">
    <rdf:RDF>
      <cc:Work
         rdf:about="">
        <dc:format>image/svg+xml</dc:format>
        <dc:type
           rdf:resource="http://purl.org/dc/dcmitype/StillImage" />
        <dc:title></dc:title>
      </cc:Work>
    </rdf:RDF>
  </metadata>
  <g
     transform="translate(-4.9504694,-65.276247)"
     id="layer1">
    <g
       id="text223"
       style="font-style:normal;font-weight:normal;font-size:29.98836899000000145px;line-height:1.25;font-family:sans-serif;letter-spacing:0px;word-spacing:0px;fill:#ffffff;fill-opacity:1;stroke:none;stroke-width:0.74970925"
       transform="scale(0.9121451,1.0963168)"
       aria-label="HELEN">
      <path
         id="path1098"
         style="font-style:normal;font-variant:normal;font-weight:600;font-stretch:normal;font-family:Raleway;-inkscape-font-specification:'Raleway Semi-Bold';fill:#ffffff;fill-opacity:1;stroke-width:0.74970925"
         d="m 87.871546,60.183905 v 21.291742 h -3.388685 v -9.38636 H 73.747025 v 9.38636 H 70.388327 V 60.183905 h 3.358698 v 8.906546 h 10.735836 v -8.906546 z" />
      <path
         id="path1100"
         style="font-style:normal;font-variant:normal;font-weight:600;font-stretch:normal;font-family:Raleway;-inkscape-font-specification:'Raleway Semi-Bold';fill:#ffffff;fill-opacity:1;stroke-width:0.74970925"
         d="m 107.24966,78.506798 v 2.968849 H 92.64532 V 60.183905 h 14.33444 v 2.968849 H 96.004017 v 6.05765 h 9.506313 v 2.788918 h -9.506313 v 6.507476 z" />
      <path
         id="path1102"
         style="font-style:normal;font-variant:normal;font-weight:600;font-stretch:normal;font-family:Raleway;-inkscape-font-specification:'Raleway Semi-Bold';fill:#ffffff;fill-opacity:1;stroke-width:0.74970925"
         d="M 110.74377,81.475647 V 60.183905 h 3.3587 v 18.322893 h 11.42557 v 2.968849 z" />
      <path
         id="path1104"
         style="font-style:normal;font-variant:normal;font-weight:600;font-stretch:normal;font-family:Raleway;-inkscape-font-specification:'Raleway Semi-Bold';fill:#ffffff;fill-opacity:1;stroke-width:0.74970925"
         d="m 142.86084,78.506798 v 2.968849 H 128.25651 V 60.183905 h 14.33444 v 2.968849 H 131.6152 v 6.05765 h 9.50632 v 2.788918 h -9.50632 v 6.507476 z" />
      <path
         id="path1106"
         style="font-style:normal;font-variant:normal;font-weight:600;font-stretch:normal;font-family:Raleway;-inkscape-font-specification:'Raleway Semi-Bold';fill:#ffffff;fill-opacity:1;stroke-width:0.74970925"
         d="m 149.71365,66.481462 v 14.994185 h -3.35869 V 60.183905 h 2.63897 L 161.16921,75.53795 V 60.213893 h 3.38869 v 21.261754 h -2.78892 z" />
    </g>
    <g
       id="text215"
       style="font-style:normal;font-weight:normal;font-size:25.54642296000000101px;line-height:1.25;font-family:sans-serif;letter-spacing:0px;word-spacing:0px;fill:#ffffff;fill-opacity:1;stroke:none;stroke-width:0.63866061"
       transform="scale(0.89552089,1.1166685)"
       aria-label="VARLEY">
      <path
         id="path1085"
         style="font-style:normal;font-variant:normal;font-weight:normal;font-stretch:normal;font-family:Raleway;-inkscape-font-specification:Raleway;stroke-width:0.63866061;fill:#ffffff;fill-opacity:1"
         d="m 73.498743,82.99103 6.488791,15.915421 6.463245,-15.915421 h 1.864889 l -7.561741,18.13796 H 79.195595 L 71.633854,82.99103 Z" />
      <path
         id="path1087"
         style="font-style:normal;font-variant:normal;font-weight:normal;font-stretch:normal;font-family:Raleway;-inkscape-font-specification:Raleway;stroke-width:0.63866061;fill:#ffffff;fill-opacity:1"
         d="m 95.012424,82.99103 h 1.507239 l 7.536197,18.13796 h -1.89044 l -2.350269,-5.671306 h -8.149309 l -2.324724,5.671306 h -1.915982 z m 4.393984,11.061601 -3.653138,-8.966794 -3.704231,8.966794 z" />
      <path
         id="path1089"
         style="font-style:normal;font-variant:normal;font-weight:normal;font-stretch:normal;font-family:Raleway;-inkscape-font-specification:Raleway;stroke-width:0.63866061;fill:#ffffff;fill-opacity:1"
         d="M 106.65601,101.12899 V 82.99103 h 7.66392 q 1.17514,0 2.1459,0.510928 0.99631,0.485382 1.71161,1.302868 0.7153,0.791939 1.0985,1.813796 0.40874,1.021857 0.40874,2.06926 0,0.996311 -0.30656,1.915982 -0.28101,0.894125 -0.81748,1.634971 -0.51093,0.7153 -1.25178,1.226228 -0.74084,0.485382 -1.66051,0.664207 l 4.44507,6.99972 h -2.01816 L 113.809,94.435827 h -5.36474 v 6.693163 z m 1.78825,-8.277041 h 5.92677 q 0.79193,0 1.43059,-0.332103 0.66421,-0.35765 1.12405,-0.945218 0.45983,-0.587568 0.7153,-1.328414 0.25546,-0.740846 0.25546,-1.558332 0,-0.817485 -0.30656,-1.558332 -0.28101,-0.766392 -0.79193,-1.328414 -0.48539,-0.562021 -1.17514,-0.894124 -0.66421,-0.332104 -1.40505,-0.332104 h -5.77349 z" />
      <path
         id="path1091"
         style="font-style:normal;font-variant:normal;font-weight:normal;font-stretch:normal;font-family:Raleway;-inkscape-font-specification:Raleway;stroke-width:0.63866061;fill:#ffffff;fill-opacity:1"
         d="M 123.32105,101.12899 V 82.99103 h 1.78825 v 16.554082 h 10.47404 v 1.583878 z" />
      <path
         id="path1093"
         style="font-style:normal;font-variant:normal;font-weight:normal;font-stretch:normal;font-family:Raleway;-inkscape-font-specification:Raleway;stroke-width:0.63866061;fill:#ffffff;fill-opacity:1"
         d="m 150.42541,99.545112 v 1.583878 H 138.23976 V 82.99103 h 11.95573 v 1.583878 h -10.16748 v 6.539884 h 8.86461 v 1.507239 h -8.86461 v 6.923081 z" />
      <path
         id="path1095"
         style="font-style:normal;font-variant:normal;font-weight:normal;font-stretch:normal;font-family:Raleway;-inkscape-font-specification:Raleway;stroke-width:0.63866061;fill:#ffffff;fill-opacity:1"
         d="m 153.9093,82.99103 5.92677,9.758733 5.97787,-9.758733 h 1.94152 l -7.02526,11.393705 v 6.744255 h -1.78825 V 94.333642 L 151.94223,82.99103 Z" />
    </g>
    <path
       id="path32"
       d="M 50.039658,89.194389 A 21.829905,22.000818 0 0 1 28.209753,111.19521 21.829905,22.000818 0 0 1 6.3798485,89.194389 21.829905,22.000818 0 0 1 28.209753,67.193571 21.829905,22.000818 0 0 1 50.039658,89.194389 Z"
       style="fill:none;stroke:#ffffff;stroke-width:2.85875821;stroke-miterlimit:4;stroke-dasharray:none;stroke-opacity:1;paint-order:stroke fill markers" />
    <flowRoot
       transform="scale(0.26458333)"
       style="font-style:normal;font-variant:normal;font-weight:normal;font-stretch:normal;font-size:48px;font-family:Raleway;-inkscape-font-specification:Raleway;letter-spacing:0px;word-spacing:0px;fill:#000000;fill-opacity:1;stroke:none"
       id="flowRoot4546"
       xml:space="preserve"><flowRegion
         style="font-style:normal;font-variant:normal;font-weight:normal;font-stretch:normal;font-size:48px;font-family:Raleway;-inkscape-font-specification:Raleway"
         id="flowRegion4548"><rect
           style="font-style:normal;font-variant:normal;font-weight:normal;font-stretch:normal;font-size:48px;font-family:Raleway;-inkscape-font-specification:Raleway"
           y="531.14038"
           x="-350"
           height="179.31035"
           width="200"
           id="rect4550" /></flowRegion><flowPara
         id="flowPara4552" /></flowRoot>    <g
       id="text4556"
       style="font-style:normal;font-weight:normal;font-size:37.41427611999999669px;line-height:1.25;font-family:sans-serif;letter-spacing:0px;word-spacing:0px;fill:#ffffff;fill-opacity:1;stroke:none;stroke-width:0.93535691"
       transform="scale(0.98405999,1.0161982)"
       aria-label="H">
      <path
         id="path1081"
         style="stroke-width:0.93535691;fill:#ffffff;fill-opacity:1"
         d="m 39.430934,101.9005 h -3.6172 V 88.582623 H 22.240098 V 101.9005 H 18.622897 V 74.698419 h 3.617201 V 85.367333 H 35.813734 V 74.698419 h 3.6172 z" />
    </g>
    <path
       id="rect4560"
       d="m 56.815018,65.950157 h 0.872684 v 46.753873 h -0.872684 z"
       style="fill:none;stroke:#fcfcfc;stroke-width:1.34782052;stroke-miterlimit:4;stroke-dasharray:none;stroke-opacity:1;paint-order:stroke fill markers" />
    <flowRoot
       style="fill:black;fill-opacity:1;stroke:none;font-family:sans-serif;font-style:normal;font-weight:normal;font-size:40px;line-height:1.25;letter-spacing:0px;word-spacing:0px"
       id="flowRoot1072"
       xml:space="preserve"><flowRegion
         id="flowRegion1074"><rect
           y="-56.952332"
           x="-387.93103"
           height="133.58157"
           width="284.48276"
           id="rect1076" /></flowRegion><flowPara
         id="flowPara1078"></flowPara></flowRoot>  </g>
</svg>
