<?xml version="1.0" encoding="utf-8"?>
<!-- Generator: Adobe Illustrator 15.1.0, SVG Export Plug-In . SVG Version: 6.00 Build 0)  -->
<!DOCTYPE svg PUBLIC "-//W3C//DTD SVG 1.1//EN" "http://www.w3.org/Graphics/SVG/1.1/DTD/svg11.dtd">
<svg version="1.1"
	 id="svg8" xmlns:rdf="http://www.w3.org/1999/02/22-rdf-syntax-ns#" xmlns:svg="http://www.w3.org/2000/svg" xmlns:dc="http://purl.org/dc/elements/1.1/" xmlns:cc="http://creativecommons.org/ns#"
	 xmlns="http://www.w3.org/2000/svg" xmlns:xlink="http://www.w3.org/1999/xlink" x="0px" y="0px" width="411.812px"
	 height="136.352px" viewBox="0 0 411.812 136.352" enable-background="new 0 0 411.812 136.352" xml:space="preserve">
<g id="text223" transform="scale(0.9121451,1.0963168)">
	<path id="path1098" fill="#FF414D" d="M233.7,1.821v60.355h-9.606V35.569h-30.432v26.607h-9.521V1.821h9.521v25.247h30.432V1.821
		H233.7z"/>
	<path id="path1100" fill="#FF414D" d="M288.631,53.76v8.416h-41.399V1.821h40.633v8.415h-31.112v17.171h26.947v7.906h-26.947V53.76
		H288.631z"/>
	<path id="path1102" fill="#FF414D" d="M298.535,62.176V1.821h9.521V53.76h32.386v8.416H298.535z"/>
	<path id="path1104" fill="#FF414D" d="M389.575,53.76v8.416h-41.399V1.821h40.634v8.415h-31.112v17.171h26.948v7.906h-26.948V53.76
		H389.575z"/>
	<path id="path1106" fill="#FF414D" d="M409.001,19.672v42.504h-9.52V1.821h7.479l34.513,43.523V1.906h9.606v60.27h-7.906
		L409.001,19.672z"/>
</g>
<g id="text215" transform="scale(0.89552089,1.1166685)">
	<path id="path1085" fill="#FF414D" d="M192.673,69.547l18.393,45.115l18.321-45.115h5.287l-21.435,51.416h-4.418l-21.435-51.416
		H192.673z"/>
	<path id="path1087" fill="#FF414D" d="M253.657,69.547h4.273l21.362,51.416h-5.359l-6.662-16.077h-23.1l-6.59,16.077h-5.432
		L253.657,69.547z M266.111,100.903l-10.355-25.418l-10.499,25.418H266.111z"/>
	<path id="path1089" fill="#FF414D" d="M286.663,120.962V69.547h21.724c2.221,0,4.249,0.484,6.083,1.449
		c1.883,0.917,3.499,2.148,4.852,3.693c1.352,1.496,2.39,3.21,3.114,5.141c0.772,1.931,1.158,3.886,1.158,5.866
		c0,1.883-0.29,3.693-0.868,5.431c-0.532,1.69-1.304,3.235-2.318,4.635c-0.965,1.351-2.148,2.51-3.548,3.475
		c-1.4,0.917-2.968,1.545-4.707,1.883l12.6,19.842h-5.721l-12.093-18.973h-15.207v18.973H286.663z M291.731,97.5h16.8
		c1.496,0,2.848-0.314,4.054-0.941c1.256-0.676,2.318-1.57,3.186-2.68c0.869-1.111,1.545-2.366,2.028-3.766
		c0.482-1.4,0.724-2.873,0.724-4.417c0-1.545-0.29-3.017-0.869-4.417c-0.531-1.448-1.279-2.704-2.245-3.766
		c-0.917-1.063-2.027-1.907-3.33-2.534c-1.256-0.628-2.582-0.942-3.982-0.942h-16.366V97.5z"/>
	<path id="path1091" fill="#FF414D" d="M333.901,120.962V69.547h5.07v46.926h29.691v4.49H333.901z"/>
	<path id="path1093" fill="#FF414D" d="M410.733,116.473v4.49H376.19V69.547h33.89v4.49h-28.822v18.538h25.129v4.273h-25.129v19.625
		H410.733z"/>
	<path id="path1095" fill="#FF414D" d="M420.608,69.547l16.8,27.663l16.944-27.663h5.505l-19.915,32.297v19.118h-5.069V101.7
		l-19.843-32.153H420.608z"/>
</g>
<path id="path32" fill="none" stroke="#FF414D" stroke-width="6" d="M128.898,67.783c0,34.745-27.949,62.912-62.423,62.912l0,0
	c-34.476,0-62.423-28.167-62.423-62.912l0,0C4.052,33.037,32,4.871,66.475,4.871C100.95,4.871,128.898,33.037,128.898,67.783z"/>
<g id="flowRoot4546" transform="scale(0.26458333)">
</g>
<g id="text4556" transform="scale(0.98405999,1.0161982)">
	<path id="path1081" fill="#FF414D" d="M97.512,106.766H87.259V69.015H48.782v37.752H38.529V29.658h10.253v30.243h38.477V29.658
		h10.253V106.766z"/>
</g>
<path id="rect4560" fill="#FF414D" stroke="#FF414D" stroke-width="1.3478" d="M147.018,1.91h2.474v132.531h-2.474V1.91z"/>
<g id="flowRoot1072">
</g>
</svg>
